Patient4_TMGait_0pt2_02_right_18_GRF.mot
version=1
nRows=26
nColumns=19
inDegrees=no
endheader
time	F1x	F1y	F1z	M1x	M1y	M1z	F2x	F2y	F2z	M2x	M2y	M2z	EC1x	EC1y	EC1z	EC2x	EC2y	EC2z
39.99	-24.3768	883.2834	54.1413	-298.4604	-66.4379	1021.0315	-0.78927	11.6258	-0.43286	3.1723	1.6482	13.0837	-0.0592	0.0182	-0.0073	-0.0462	0.0165	0.9585
40.0109	-22.1724	880.9087	54.2796	-297.768	-65.3138	1014.2389	-0.94994	8.3331	-0.33914	2.319	1.331	9.4303	-0.0592	0.0182	-0.0073	-0.0462	0.0165	0.9585
40.0317	-19.3957	874.2836	53.9841	-295.6926	-63.4332	1001.9767	-1.0788	5.5165	-0.25803	1.5881	1.0507	6.3171	-0.0592	0.0182	-0.0073	-0.0462	0.0165	0.9585
40.0526	-16.1187	862.5675	53.1885	-291.932	-60.7848	983.52	-1.1788	3.3579	-0.19837	1.0288	0.83506	3.9417	-0.0592	0.0182	-0.0073	-0.0462	0.0165	0.9585
40.0734	-12.4371	845.7807	51.9237	-286.4657	-57.4786	959.104	-1.2551	1.8573	-0.16446	0.64166	0.69502	2.2943	-0.0592	0.0182	-0.0073	-0.0462	0.0165	0.9585
40.0943	-8.4394	824.797	50.2771	-279.5683	-53.6821	929.8858	-1.314	0.90972	-0.15709	0.39779	0.6292	1.2511	-0.0592	0.0182	-0.0073	-0.0462	0.0165	0.9585
40.1151	-4.1874	801.1874	48.3538	-271.765	-49.5612	897.7445	-1.3604	0.35468	-0.1725	0.2515	0.62555	0.63343	-0.0592	0.0182	-0.0073	-0.0462	0.0165	0.9585
40.136	0.27845	776.9795	46.2553	-263.7483	-45.2566	865.0086	-1.3982	0.017189	-0.20387	0.15122	0.66197	0.24511	-0.0592	0.0182	-0.0073	-0.0462	0.0165	0.9585
40.1569	4.9116	754.3398	44.0768	-256.2653	-40.8911	834.1285	-1.4283	-0.27222	-0.24332	0.045799	0.71605	-0.10404	-0.0592	0.0182	-0.0073	-0.0462	0.0165	0.9585
40.1777	9.6265	735.2913	41.9124	-250.0153	-36.5911	807.382	-1.4462	-0.66331	-0.28304	-0.11037	0.77075	-0.5823	-0.0592	0.0182	-0.0073	-0.0462	0.0165	0.9585
40.1986	14.2868	721.4732	39.8667	-245.5589	-32.5059	786.6112	-1.4448	-1.2721	-0.31426	-0.35285	0.80892	-1.324	-0.0592	0.0182	-0.0073	-0.0462	0.0165	0.9585
40.2194	18.7258	713.8922	38.0508	-243.2315	-28.7993	772.9564	-1.4127	-2.1674	-0.3271	-0.70155	0.80983	-2.4091	-0.0592	0.0182	-0.0073	-0.0462	0.0165	0.9585
40.2403	22.7916	712.756	36.5718	-243.0876	-25.6247	766.6682	-1.3323	-3.3486	-0.30474	-1.1527	0.74732	-3.8346	-0.0592	0.0182	-0.0073	-0.0462	0.0165	0.9585
40.2611	26.3677	717.4118	35.5249	-244.8781	-23.1161	767.0461	-1.1815	-4.7133	-0.22334	-1.6654	0.58908	-5.4766	-0.0592	0.0182	-0.0073	-0.0462	0.0165	0.9585
40.282	29.3794	726.4071	34.9815	-248.0773	-21.3725	772.5292	-0.93359	-6.0125	-0.053781	-2.1445	0.29358	-7.0389	-0.0592	0.0182	-0.0073	-0.0462	0.0165	0.9585
40.3029	31.8141	737.7414	34.9589	-251.9753	-20.418	780.9601	-0.56538	-6.8028	0.23493	-2.4232	-0.18293	-7.9954	-0.0592	0.0182	-0.0073	-0.0462	0.0165	0.9585
40.3237	33.7195	749.2164	35.413	-255.8048	-20.1961	789.9596	-0.067818	-6.3998	0.6697	-2.2462	-0.87396	-7.527	-0.0592	0.0182	-0.0073	-0.0462	0.0165	0.9585
40.3446	35.1707	758.7447	36.2665	-258.8467	-20.6029	797.2743	0.54064	-3.8561	1.2596	-1.2601	-1.7806	-4.4935	-0.0592	0.0182	-0.0073	-0.0462	0.0165	0.9585
40.3654	36.2317	764.5736	37.42	-260.5037	-21.5086	801.027	1.1921	2.017	1.9812	0.97748	-2.8431	2.5335	-0.0592	0.0182	-0.0073	-0.0462	0.0165	0.9585
40.3863	36.9263	765.3938	38.7428	-260.3374	-22.7581	799.8326	1.7495	12.5476	2.7562	4.9587	-3.9082	15.143	-0.0592	0.0182	-0.0073	-0.0462	0.0165	0.9585
40.4071	37.2232	760.2898	40.0724	-258.0522	-24.1776	792.7477	1.983	28.9805	3.4259	11.1398	-4.6942	34.8272	-0.0592	0.0182	-0.0073	-0.0462	0.0165	0.9585
40.428	37.0336	748.6229	41.2282	-253.4542	-25.5957	779.1498	1.5516	52.0825	3.7183	19.7919	-4.7508	62.5094	-0.0592	0.0182	-0.0073	-0.0462	0.0165	0.9585
40.4489	36.2313	729.9442	42.0412	-246.4201	-26.8731	758.632	0.0092765	81.5516	3.2277	30.7798	-3.4388	97.838	-0.0592	0.0182	-0.0073	-0.0462	0.0165	0.9585
40.4697	34.7162	704.1226	42.3687	-236.9372	-27.9009	731.1094	-2.9227	115.4797	1.5217	43.3631	-0.16333	138.532	-0.0592	0.0182	-0.0073	-0.0462	0.0165	0.9585
40.4906	32.5025	671.7887	42.1192	-225.2537	-28.5946	697.241	-6.8042	150.7612	-1.5192	56.369	5.0144	180.8266	-0.0592	0.0182	-0.0073	-0.0462	0.0165	0.9585
40.5114	29.7703	634.6797	41.2754	-211.9969	-28.8901	658.7671	-10.8682	184.9567	-5.4537	68.9082	11.2559	221.707	-0.0592	0.0182	-0.0073	-0.0462	0.0165	0.9585
